# xmcd
# 
# Track frame offsets:
#     150
#     19442
#     34301
#     51493
#     65965
#     83509
#     103230
#     121290
#     135669
#     150792
#     165446
#     179819
# 
# Disc length: 2585
# 
# Revision: 1
# Processed by: cddbd v1.5.2PL0 Copyright (c) Steve Scherf et al.
# Submitted via: fre:ac v1.1beta1pre4
# 
DISCID=a60a170c
DTITLE=Rebecca Folsom - Shine
DYEAR=2004
DGENRE=Blues
TTITLE0=Because Of You
TTITLE1=Shine
TTITLE2=Let's Be Too Much
TTITLE3=Natural Disaster
TTITLE4=Not A Child
TTITLE5=Mimi's Boots
TTITLE6=Sweet Lorraine
TTITLE7=Lift Me Higher
TTITLE8=Icarus
TTITLE9=Satisfied
TTITLE10=These Days
TTITLE11=I Will Love You
EXTD=YEAR: 2004
EXTT0=
EXTT1=
EXTT2=
EXTT3=
EXTT4=
EXTT5=
EXTT6=
EXTT7=
EXTT8=
EXTT9=
EXTT10=
EXTT11=
PLAYORDER=
